<svg xmlns="http://www.w3.org/2000/svg" viewBox="0 0 320.55 215"><title>activity</title><rect x="138.6" y="68.67" width="123.06" height="142.33" rx="5.27" style="fill:#fff;stroke:#bed4e6;stroke-linecap:round;stroke-linejoin:round;stroke-width:8px"/><line x1="158.44" y1="68.67" x2="158.44" y2="211" style="fill:#fff;stroke:#bed4e6;stroke-linecap:round;stroke-linejoin:round;stroke-width:8px"/><rect x="179.71" y="89.52" width="62.67" height="10.89" rx="5.45" style="fill:#32bccb"/><rect x="179.71" y="131.79" width="40.67" height="10.89" rx="5.45" style="fill:#32bccb"/><rect x="179.71" y="110.65" width="60.01" height="10.89" rx="5.45" style="fill:#32bccb"/><rect x="24.33" width="43.5" height="83.24" rx="18.3" style="fill:#ffbf58"/><path d="M87.16,62.7a41.08,41.08,0,0,1-41.08,41.08h0A41.08,41.08,0,0,1,5,62.7" style="fill:none;stroke:#ffbf58;stroke-linecap:round;stroke-miterlimit:10;stroke-width:10px"/><line x1="30.89" y1="137.88" x2="62.02" y2="137.88" style="fill:none;stroke:#ffbf58;stroke-linecap:round;stroke-miterlimit:10;stroke-width:10px"/><line x1="45.57" y1="105.26" x2="45.9" y2="137.88" style="fill:none;stroke:#ffbf58;stroke-linecap:round;stroke-miterlimit:10;stroke-width:10px"/><polyline points="214.81 138.51 207.48 175.2 243.12 166.81" style="fill:none;stroke:#bed4e6;stroke-linecap:round;stroke-linejoin:round;stroke-width:8px"/><rect x="245.17" y="63.81" width="40.03" height="105.26" transform="translate(160.01 -153.41) rotate(45)" style="fill:#c2f05b;stroke:#bed4e6;stroke-linecap:round;stroke-linejoin:round;stroke-width:8px"/></svg>