<svg xmlns="http://www.w3.org/2000/svg" viewBox="0 0 331.48 243.7"><title>art</title><rect x="4" y="28.93" width="297.98" height="210.77" rx="24" style="fill:#fff"/><path d="M278,32.93a20,20,0,0,1,20,20V215.7a20,20,0,0,1-20,20H28a20,20,0,0,1-20-20V52.93a20,20,0,0,1,20-20H278m0-8H28a28,28,0,0,0-28,28V215.7a28,28,0,0,0,28,28H278a28,28,0,0,0,28-28V52.93a28,28,0,0,0-28-28Z" style="fill:#bed4e6"/><polyline points="225.75 77.43 218.41 114.13 254.05 105.74" style="fill:none;stroke:#bed4e6;stroke-linecap:round;stroke-linejoin:round;stroke-width:8px"/><rect x="256.1" y="2.74" width="40.03" height="105.26" transform="translate(120.02 -179.02) rotate(45)" style="fill:#c2f05b;stroke:#bed4e6;stroke-linecap:round;stroke-linejoin:round;stroke-width:8px"/><circle cx="93.87" cy="127.43" r="48.5" style="fill:#ffbf58"/><circle cx="188.87" cy="161.43" r="29.5" style="fill:#32bccb"/></svg>