<svg xmlns="http://www.w3.org/2000/svg" viewBox="0 0 387.84 248.59"><title>game</title><rect x="71.92" width="291.27" height="199.29" rx="8.27" style="fill:#32bccb"/><rect x="4" y="23.83" width="116.1" height="220.76" rx="8.85" style="fill:#fff"/><path d="M111.25,27.83a4.85,4.85,0,0,1,4.85,4.85V235.74a4.85,4.85,0,0,1-4.85,4.85H12.85A4.85,4.85,0,0,1,8,235.74V32.68a4.85,4.85,0,0,1,4.85-4.85h98.4m0-8H12.85A12.86,12.86,0,0,0,0,32.68V235.74a12.87,12.87,0,0,0,12.85,12.85h98.4a12.87,12.87,0,0,0,12.85-12.85V32.68a12.87,12.87,0,0,0-12.85-12.85Z" style="fill:#bed4e6"/><path d="M254.06,240.69a34,34,0,0,1-34-34V192.34a12,12,0,0,1,12-12H371.84a12,12,0,0,1,12,12v14.35a34,34,0,0,1-34,34Z" style="fill:#fff"/><path d="M371.84,184.34a8,8,0,0,1,8,8v14.35a30,30,0,0,1-30,30H254.06a30,30,0,0,1-30-30V192.34a8,8,0,0,1,8-8H371.84m0-8H232.06a16,16,0,0,0-16,16v14.35a38,38,0,0,0,38,38h95.78a38,38,0,0,0,38-38V192.34a16,16,0,0,0-16-16Z" style="fill:#bed4e6"/><circle cx="258.43" cy="209.88" r="11.67" style="fill:#bed4e6"/><circle cx="305.73" cy="201.74" r="4.73" style="fill:#bed4e6"/><circle cx="305.73" cy="219.92" r="4.73" style="fill:#bed4e6"/><circle cx="296.65" cy="210.34" r="4.73" style="fill:#bed4e6"/><circle cx="314.82" cy="210.34" r="4.73" style="fill:#bed4e6"/><rect x="323.08" y="196.96" width="6.94" height="6.94" rx="1.84" style="fill:#bed4e6"/><circle cx="183.91" cy="70.25" r="37.03" style="fill:#fff"/><path d="M187.69,90.42A9.8,9.8,0,0,1,178.48,84a2,2,0,1,1,3.75-1.36,5.8,5.8,0,0,0,10.9-4,2,2,0,0,1,3.76-1.37,9.8,9.8,0,0,1-9.2,13.14Z" style="fill:#ffbf58"/><circle cx="170.59" cy="71.63" r="6.5" style="fill:#ffbf58"/><path d="M192.52,65.5a2,2,0,0,1-.68-3.88l8.55-3.11a2,2,0,1,1,1.36,3.76l-8.55,3.11A2,2,0,0,1,192.52,65.5Z" style="fill:#ffbf58"/><path d="M283.72,155.89a5,5,0,0,1-1.39-.19L274,153.42a5.16,5.16,0,0,1-3.7-4.2,8.28,8.28,0,0,0-6-6.75,8.61,8.61,0,0,0-2.19-.29,8.37,8.37,0,0,0-6.41,3,5.14,5.14,0,0,1-4,1.91,4.94,4.94,0,0,1-1.32-.18l-10.64-2.91a5.28,5.28,0,0,1-3.7-6.48l2.24-8.22a5.17,5.17,0,0,1,4.1-3.68,8.26,8.26,0,0,0,3.94-14.43,5.16,5.16,0,0,1-1.65-5.26l3-11a5.31,5.31,0,0,1,5.1-3.89,5,5,0,0,1,1.39.19l8.62,2.35A14.35,14.35,0,0,1,274,88.16a14.14,14.14,0,0,1,3.76.51,14.36,14.36,0,0,1,10.38,11.89l8.62,2.35a5.29,5.29,0,0,1,3.7,6.49l-2.86,10.48a14.26,14.26,0,0,1-6.69,24.45L288.82,152a5.31,5.31,0,0,1-5.1,3.89Z" style="fill:#32bccb"/><path d="M274,91.16a11.27,11.27,0,0,1,11.21,10.15,2.39,2.39,0,0,0,1.77,2l9,2.46a2.27,2.27,0,0,1,1.6,2.8l-3,11a2.13,2.13,0,0,0,.7,2.18,11.26,11.26,0,0,1-5.38,19.67,2.11,2.11,0,0,0-1.71,1.52l-2.25,8.21a2.29,2.29,0,0,1-2.2,1.68,2.47,2.47,0,0,1-.6-.08l-8.36-2.29a2.12,2.12,0,0,1-1.52-1.75,11.26,11.26,0,0,0-8.17-9.19,11.42,11.42,0,0,0-3-.4,11.29,11.29,0,0,0-8.73,4.15,2.17,2.17,0,0,1-1.67.81,2,2,0,0,1-.53-.07l-10.64-2.91a2.28,2.28,0,0,1-1.6-2.8l2.25-8.21a2.13,2.13,0,0,1,1.71-1.53A11.26,11.26,0,0,0,248.26,109a2.13,2.13,0,0,1-.7-2.18l3-11a2.27,2.27,0,0,1,2.2-1.68,2.06,2.06,0,0,1,.6.08l9,2.46a2.5,2.5,0,0,0,.66.09,2.34,2.34,0,0,0,1.9-.94A11.3,11.3,0,0,1,274,91.16m0-6a17.32,17.32,0,0,0-12.22,5.08L255,88.37a8.42,8.42,0,0,0-2.18-.29,8.31,8.31,0,0,0-8,6.1l-3,11a8.18,8.18,0,0,0,2.59,8.33,5.26,5.26,0,0,1-2.51,9.19,8.19,8.19,0,0,0-6.47,5.85l-2.25,8.21A8.3,8.3,0,0,0,238.94,147l10.64,2.91a7.94,7.94,0,0,0,2.11.28,8.14,8.14,0,0,0,6.32-3,5.3,5.3,0,0,1,4.08-1.94,5.14,5.14,0,0,1,1.4.19,5.26,5.26,0,0,1,3.82,4.3,8.13,8.13,0,0,0,5.87,6.64l8.36,2.29a8.42,8.42,0,0,0,2.18.29,8.31,8.31,0,0,0,8-6.1l1.64-6A17.25,17.25,0,0,0,300.94,119l2.42-8.83A8.29,8.29,0,0,0,297.55,100l-6.83-1.87a17.38,17.38,0,0,0-12.17-12.37,17.1,17.1,0,0,0-4.55-.62Z" style="fill:#fff"/><circle cx="61.82" cy="132.19" r="27.16" style="fill:#c2f05b"/><path d="M61.84,142.1a5.71,5.71,0,0,1-9.35-6.57" style="fill:none;stroke:#fff;stroke-linecap:round;stroke-miterlimit:10;stroke-width:4px"/><circle cx="55.4" cy="124.76" r="4.76" style="fill:#fff"/><line x1="69.5" y1="134.53" x2="74.95" y2="138.37" style="fill:none;stroke:#fff;stroke-linecap:round;stroke-miterlimit:10;stroke-width:4px"/></svg>