<svg xmlns="http://www.w3.org/2000/svg" viewBox="0 0 412.09 274.59"><title>website</title><path d="M249.63,241H210.87a7.37,7.37,0,0,1-7.37-7.37v-7.26a7.37,7.37,0,0,1,7.37-7.37h7.63v-4h-79v4h7.63a7.37,7.37,0,0,1,7.37,7.37v7.26a7.37,7.37,0,0,1-7.37,7.37H108.37a7.37,7.37,0,0,0-7.37,7.37v11.26a7.37,7.37,0,0,0,7.37,7.37H249.63a7.37,7.37,0,0,0,7.37-7.37V248.37A7.37,7.37,0,0,0,249.63,241Z" style="fill:#fff;stroke:#bed4e6;stroke-miterlimit:10;stroke-width:8px"/><rect x="4" y="4" width="350" height="219" rx="24" style="fill:#fff"/><path d="M330,8a20,20,0,0,1,20,20V199a20,20,0,0,1-20,20H28A20,20,0,0,1,8,199V28A20,20,0,0,1,28,8H330m0-8H28A28,28,0,0,0,0,28V199a28,28,0,0,0,28,28H330a28,28,0,0,0,28-28V28A28,28,0,0,0,330,0Z" style="fill:#bed4e6"/><rect x="34.83" y="40" width="289" height="68" rx="5.04" style="fill:#ffbf58"/><rect x="34.83" y="119" width="111" height="54" rx="5.04" style="fill:#c2f05b"/><line x1="8" y1="184" x2="350" y2="184" style="fill:#fff;stroke:#bed4e6;stroke-miterlimit:10;stroke-width:8px"/><rect x="291.99" y="49.83" width="116.1" height="220.76" rx="16.31" style="fill:#fff"/><path d="M391.78,53.83a12.31,12.31,0,0,1,12.31,12.31V254.28a12.31,12.31,0,0,1-12.31,12.31H308.3A12.31,12.31,0,0,1,296,254.28V66.14A12.31,12.31,0,0,1,308.3,53.83h83.48m0-8H308.3A20.34,20.34,0,0,0,288,66.14V254.28a20.34,20.34,0,0,0,20.31,20.31h83.48a20.33,20.33,0,0,0,20.31-20.31V66.14a20.33,20.33,0,0,0-20.31-20.31Z" style="fill:#bed4e6"/><path d="M391.78,61.83a4.31,4.31,0,0,1,4.31,4.31V254.28a4.32,4.32,0,0,1-4.31,4.31H308.3a4.32,4.32,0,0,1-4.31-4.31V66.14a4.32,4.32,0,0,1,4.31-4.31h83.48m0-8H308.3A12.31,12.31,0,0,0,296,66.14V254.28a12.31,12.31,0,0,0,12.31,12.31h83.48a12.31,12.31,0,0,0,12.31-12.31V66.14a12.31,12.31,0,0,0-12.31-12.31Z" style="fill:#fff"/><rect x="158.56" y="123.98" width="94.27" height="9.02" rx="4.51" style="fill:#32bccb"/><rect x="158.56" y="158.98" width="113.27" height="9.02" rx="4.51" style="fill:#32bccb"/><rect x="158.56" y="141.48" width="60.27" height="9.02" rx="4.51" style="fill:#32bccb"/><rect x="303.98" y="67" width="91.85" height="71" rx="3.49" style="fill:#ffbf58"/><rect x="303.83" y="145" width="92" height="41" rx="5.04" style="fill:#c2f05b"/><rect x="303.56" y="198.06" width="76.79" height="7.35" rx="3.67" style="fill:#32bccb"/><rect x="303.56" y="226.57" width="92.27" height="7.35" rx="3.67" style="fill:#32bccb"/><rect x="303.56" y="212.32" width="49.1" height="7.35" rx="3.67" style="fill:#32bccb"/></svg>