<svg xmlns="http://www.w3.org/2000/svg" viewBox="0 0 428 246.63"><title>アセット 1</title><rect x="21.63" y="4" width="384.74" height="234.63" rx="25.36" style="fill:#fff"/><path d="M381,8a21.36,21.36,0,0,1,21.36,21.36V213.27A21.36,21.36,0,0,1,381,234.63H47a21.36,21.36,0,0,1-21.36-21.36V29.36A21.36,21.36,0,0,1,47,8H381m0-8H47A29.39,29.39,0,0,0,17.63,29.36V213.27A29.39,29.39,0,0,0,47,242.63H381a29.39,29.39,0,0,0,29.36-29.36V29.36A29.39,29.39,0,0,0,381,0Z" style="fill:#bed4e6"/><rect x="52.26" y="33.05" width="323.48" height="190.23" rx="6.8" style="fill:#32bccb"/><rect x="136.05" y="53.47" width="147.54" height="109.5" rx="5.78" style="fill:#fff"/><circle cx="168.07" cy="85.25" r="15.31" style="fill:#ffbf58"/><rect x="191.73" y="80.61" width="71.45" height="9.28" rx="4.64" style="fill:#32bccb"/><rect x="152.76" y="110.07" width="114.14" height="38.05" rx="4.9" style="fill:#c2f05b"/><rect x="136.05" y="172.24" width="147.54" height="54.75" rx="5.78" style="fill:#fff"/><path d="M27.09,242.63A23.12,23.12,0,0,1,4,219.54v-7.75a12,12,0,0,1,12-12H412a12,12,0,0,1,12,12v7.75a23.12,23.12,0,0,1-23.09,23.09Z" style="fill:#fff"/><path d="M412,203.79a8,8,0,0,1,8,8v7.75a19.09,19.09,0,0,1-19.09,19.09H27.09A19.09,19.09,0,0,1,8,219.54v-7.75a8,8,0,0,1,8-8H412m0-8H16a16,16,0,0,0-16,16v7.75a27.12,27.12,0,0,0,27.09,27.09H400.91A27.12,27.12,0,0,0,428,219.54v-7.75a16,16,0,0,0-16-16Z" style="fill:#bed4e6"/></svg>