<svg xmlns="http://www.w3.org/2000/svg" viewBox="0 0 358.37 255.41"><title>Webtool</title><rect x="4" y="4" width="350.37" height="247.41" rx="24" style="fill:#fff"/><path d="M330.37,8a20,20,0,0,1,20,20V227.41a20,20,0,0,1-20,20H28a20,20,0,0,1-20-20V28A20,20,0,0,1,28,8H330.37m0-8H28A28,28,0,0,0,0,28V227.41a28,28,0,0,0,28,28H330.37a28,28,0,0,0,28-28V28a28,28,0,0,0-28-28Z" style="fill:#bed4e6"/><line x1="8.34" y1="50.63" x2="350.03" y2="50.63" style="fill:#fff;stroke:#bed4e6;stroke-miterlimit:10;stroke-width:8px"/><circle cx="34.87" cy="27.13" r="10.5" style="fill:#bed4e6"/><circle cx="61.87" cy="27.13" r="10.5" style="fill:#bed4e6"/><circle cx="88.87" cy="27.13" r="10.5" style="fill:#bed4e6"/><rect x="42.37" y="150.63" width="120" height="58" rx="11.25" style="fill:#fff"/><path d="M151.12,153.63a8.25,8.25,0,0,1,8.25,8.25v35.5a8.25,8.25,0,0,1-8.25,8.25H53.62a8.25,8.25,0,0,1-8.25-8.25v-35.5a8.25,8.25,0,0,1,8.25-8.25h97.5m0-6H53.62a14.26,14.26,0,0,0-14.25,14.25v35.5a14.26,14.26,0,0,0,14.25,14.25h97.5a14.26,14.26,0,0,0,14.25-14.25v-35.5a14.26,14.26,0,0,0-14.25-14.25Z" style="fill:#c2f05b"/><line x1="102.37" y1="205.63" x2="102.37" y2="153.63" style="fill:#fff;stroke:#c2f05b;stroke-miterlimit:10;stroke-width:6px"/><line x1="45.37" y1="169.98" x2="159.37" y2="169.98" style="fill:#fff;stroke:#c2f05b;stroke-miterlimit:10;stroke-width:6px"/><line x1="45.37" y1="189.57" x2="159.37" y2="189.57" style="fill:#fff;stroke:#c2f05b;stroke-miterlimit:10;stroke-width:6px"/><rect x="45.1" y="84.61" width="94.27" height="9.02" rx="4.51" style="fill:#32bccb"/><rect x="45.1" y="119.61" width="113.27" height="9.02" rx="4.51" style="fill:#32bccb"/><rect x="45.1" y="102.11" width="60.27" height="9.02" rx="4.51" style="fill:#32bccb"/><circle cx="217.18" cy="147.72" r="14.11" style="fill:#ffbf58"/><polyline points="274.54 116.15 215.07 147.95 274.54 182.54" style="fill:none;stroke:#ffbf58;stroke-miterlimit:10;stroke-width:8px"/><circle cx="274.56" cy="115.74" r="14.11" style="fill:#ffbf58"/><circle cx="274.56" cy="182.52" r="14.11" style="fill:#ffbf58"/></svg>