<svg xmlns="http://www.w3.org/2000/svg" viewBox="0 0 457.04 90.99"><title>logo_2</title><path d="M25.74,56.1C21,64.75,44.21,77.32,46.57,76.05c1.56-3-1.11-9.41-4.4-13.45l1.42-4.8,1.15-.35,8.35,3.06c31.5,37.16-2.52,29.69-25,30.15C1.26,91.87-.08,88.56,8.43,67.4,8.8,60.67,23.34,57.31,25.74,56.1Z" style="fill:#31bccc"/><path d="M53.92,46.18a1.51,1.51,0,0,1-.77-.21,1.49,1.49,0,0,1-.52-2.06,3.17,3.17,0,0,1,2.3-1.3,5.73,5.73,0,0,0,.9-.26l.09,0c.19,0-1.71-2.28,1-5.38a4.16,4.16,0,0,0,1-1.27l.06-.12a9.79,9.79,0,0,0-.88-.77,22,22,0,0,1-3.19-3.11c-2.07-2.5-2.32-7.35-2.35-7.9A1.51,1.51,0,0,1,53,22.2a1.49,1.49,0,0,1,1.56,1.44c0,1.2.45,4.65,1.66,6.1,1.25,2.42,7.86,4.35,2.75,9.38-.32.32-.53.51-.5,1.67a2,2,0,0,1,.55,1.88A2.32,2.32,0,0,1,57.37,45l-.35.15a8.78,8.78,0,0,1-1.45.43l-.52.12A1.49,1.49,0,0,1,53.92,46.18Zm4.15-10.55h0Z" style="fill:#1a1a1a"/><path d="M110.53,60.55,94.93,33.4h8.3l10.93,19.1,11-19.1h8.3L117.75,60.55V81.2h-7.22Z"/><path d="M144.55,51V68.35c-.78,9,12,10.76,11.83,0V51h7V68.5a19.72,19.72,0,0,1-.89,6.26,10.48,10.48,0,0,1-3,4.24c-3.73,3.28-12.54,4.6-17.92,0a10.52,10.52,0,0,1-3.06-4.24,17.23,17.23,0,0,1-.87-6.26V51Z"/><path d="M179.1,28.91V60.8L188.91,51h9.35L185.17,63.71,199.22,81.2h-9l-10-12.73-1.11,1.12V81.2h-7V28.91Z"/><path d="M202.66,38.51A4.31,4.31,0,0,1,204,35.35c1.08-.8,3.24-2.46,6.41,0,.79,1.06,2.45,3.24,0,6.41-1.06.8-3.24,2.46-6.41,0A4.41,4.41,0,0,1,202.66,38.51Zm8,12.53V81.2h-7V51Z"/><path d="M238.72,81.2l10.06-51.39L265.19,67l17-37.15,9,51.39h-7.4l-4.61-28.85-14.15,31L251.32,52.31,246.18,81.2Z"/><path d="M299,38.51a4.31,4.31,0,0,1,1.33-3.16c1.08-.8,3.24-2.46,6.41,0,.8,1.06,2.46,3.24,0,6.41-1.06.8-3.24,2.46-6.41,0A4.41,4.41,0,0,1,299,38.51ZM307,51V81.2h-7V51Z"/><path d="M315.8,28.91h7V53.55c3.28-3.23,11.64-5.16,16.38,0q2.6,2.88,2.6,9.2V81.2h-7V63.37c.85-5.36-5.1-9.72-10.56-4.62q-1.46,2.3-1.46,7.87V81.2h-7Z"/><path d="M372.79,51h7V81.2h-7V78c-4.71,4.71-13.93,5.79-19.59-.5-4.58-5-5.94-16.3,0-22.81,4.67-5,13.11-6.63,19.59-.19ZM356.26,66a10.5,10.5,0,0,0,2.32,7.06,8.5,8.5,0,0,0,12.26.09,11.79,11.79,0,0,0,0-14,8.44,8.44,0,0,0-12.2,0A10,10,0,0,0,356.26,66Z"/><path d="M406.1,56.18l-5.76,3.07c-1-.77-1.25-3.82-5-2.15-1.08,1.81-1,3,3.34,5.06q5.54,2.39,7.46,4.39c2.43,2.88,2.94,8.19-1.3,12.73-4.48,4.34-15.25,3.61-18.3-4.62l6-2.75a12.46,12.46,0,0,0,1.89,2.75c2.35,2.78,10.92-.37,3.83-5.51q-1.05-.53-2.1-1l-2.14-1a13.14,13.14,0,0,1-4.27-3c-1.56-1.58-2.64-7.61,1.12-11.36A9.68,9.68,0,0,1,406.1,56.18Z"/><path d="M414.3,28.91h7V53.55c3.27-3.23,11.63-5.16,16.37,0,1.74,1.92,2.6,5,2.6,9.2V81.2h-7V63.37c.85-5.36-5.1-9.72-10.56-4.62q-1.46,2.3-1.45,7.87V81.2h-7Z"/><path d="M448,38.51a4.35,4.35,0,0,1,1.33-3.16c1.09-.8,3.24-2.46,6.41,0,.8,1.06,2.46,3.24,0,6.41-1.06.8-3.24,2.46-6.41,0A4.45,4.45,0,0,1,448,38.51ZM456,51V81.2h-7V51Z"/><path d="M11.09,10.7c-27.34,16,7.63,63.67,22,39a12,12,0,0,0,3-8l1,5s8-4,10-19c0,0,1,8,0,12C79.06,3.86,21.78-8.92,11.09,10.7Z" style="fill:#31bccc"/><path d="M24.53,57.6a25.3,25.3,0,0,1-7.91-1.48C-5.6,50.56-3.18,13.28,10.07,9.4c.93-1.64,3.75-5.57,10.5-8.1C28.85-1.81,45.32.94,52.05,6.55c6.3,5.25,6.74,14.55,5.5,19.52-1,4.19-8.44,13.52-9.28,14.57a1.5,1.5,0,0,1-2.63-1.3,12.67,12.67,0,0,0,.23-1.27c-3.25,7.45-7.84,9.84-8.11,10a1.51,1.51,0,0,1-1.33,0,1.81,1.81,0,0,1-.29-.19,13.84,13.84,0,0,1-1.64,2.52A8.92,8.92,0,0,1,30.69,56,11.17,11.17,0,0,1,24.53,57.6ZM11.29,12.19C-1.55,16.22,1,51.05,17.57,53.28c5.08,1.69,9.05,1.75,11.49.18a5.85,5.85,0,0,0,2.54-3.91,1.58,1.58,0,0,1,.43-.91c2.19-1.5.39-4.22,3.92-8.43a1.48,1.48,0,0,1,1.61,1.2l.54,2.69c2.28-2.05,6.21-6.89,7.51-16.6.1-.74,0,0,1.49-1.3a1.5,1.5,0,0,1,1.48,1.32A64.64,64.64,0,0,1,49,34.67c2.4-3.29,5.1-7.34,5.6-9.33,1-4.08.69-12.15-4.51-16.49C44.28,4,28.83,1.4,21.62,4.11s-9.06,7-9.14,7.16A1.51,1.51,0,0,1,11.29,12.19Zm-.2-1.49h0Z" style="fill:#1a1a1a"/><path d="M42.3,65.46a1.49,1.49,0,0,1-1.44-1.08,9.87,9.87,0,0,1,0-3.89c.37-2.39,2.74-6.81,5-7.75a15.9,15.9,0,0,1,4.83-.68,17.12,17.12,0,0,0,1.79-.14c.35-.07.77-.66,1-1.17.07-.17.21-.64.38-1.19.89-2.84,1.16-3.5,1.62-3.92l.18-.16a2.36,2.36,0,0,0,.22-.21,2,2,0,0,0-.28-.71A1.5,1.5,0,0,1,58,42.89a4.55,4.55,0,0,1,.77,2.49,3.12,3.12,0,0,1-1.21,2.35c-.23.5-.69,2-.92,2.72s-.38,1.22-.49,1.47A4.77,4.77,0,0,1,53,54.86a16.25,16.25,0,0,1-2.28.19,15.84,15.84,0,0,0-3.8.46c-.81.33-2.87,3.5-3.17,5.43a7.2,7.2,0,0,0,0,2.64,1.53,1.53,0,0,1-1.07,1.83A1.74,1.74,0,0,1,42.3,65.46Z" style="fill:#1a1a1a"/><path d="M4.7,90H4.57a1.49,1.49,0,0,1-1.36-1.63c.06-.7,0-3.14,0-6-1.5-3.53,2.87-17,5.39-17.52a1.5,1.5,0,0,1,2.17,2.08C5.87,71.06,6,80.23,6.2,88.59A1.51,1.51,0,0,1,4.7,90Z" style="fill:#1a1a1a"/><path d="M31.3,88.62A1.51,1.51,0,0,1,30,87.93c-.69-1.09-3.5-4.1-14.52-12.06-6.15-4.44-8.34-8.38-6.88-12.41C9.75,60.37,13.77,58,17,57.38a72.58,72.58,0,0,0,8.21-2.68,1.49,1.49,0,0,1,1.39.16,1.53,1.53,0,0,1,.66,1.24c0,3.1.09,4.68.09,4.69a1.5,1.5,0,1,1-3,.16c0-.05-.06-.93-.08-2.7a55.26,55.26,0,0,1-6.69,2.07c-2.35.48-5.44,2.3-6.12,4.16-.37,1-1.37,3.78,5.81,9C30.4,82.92,32,85.47,32.57,86.32a1.51,1.51,0,0,1-.46,2.07A1.49,1.49,0,0,1,31.3,88.62Z" style="fill:#1a1a1a"/><path d="M31.3,88.62a1.5,1.5,0,0,1-1.5-1.5V82.59c0-3.21-.92-4.59-2.74-7.33-.45-.68-.95-1.42-1.49-2.28C22.76,68.5,22,63.76,22.92,61.93a1.5,1.5,0,0,1,2.7,1.31c-.19.6-.06,4.07,2.49,8.14.53.84,1,1.56,1.45,2.22,2,2.94,3.24,4.87,3.24,9v4.53A1.5,1.5,0,0,1,31.3,88.62Z" style="fill:#1a1a1a"/><path d="M46.17,79.1a1.5,1.5,0,0,1-1.35-.86c-.68-1.16-6.74-4.13-10-5.73-2.27-1.11-4.23-2.07-5.41-2.79-4.1-2.5-4.22-5.89-4.22-6a1.5,1.5,0,0,1,1.46-1.53c.86,0,0,0,1.53,1.44,0,.13.2,2,2.79,3.57,1.07.65,3.06,1.63,5.17,2.66a78.92,78.92,0,0,1,9.15,4.92c.25-1.64.32-3.6-.39-4.74a19,19,0,0,0-2.74-3.65,1.5,1.5,0,0,1,2-2.24,20.64,20.64,0,0,1,3.29,4.31c2.08,3.37.35,9,.15,9.64a1.5,1.5,0,0,1-1.33,1Z" style="fill:#1a1a1a"/><path d="M57.68,71.09h-.06a1.5,1.5,0,0,1-1.44-1.56l0-.33c.14-3.48.13-5.08-1.66-6.53-2.11-2.78-10.61-2.24-11.91-6.55a1.5,1.5,0,0,1,1.89-1c.94.3,9.23,3,11.91,5.18,3,2.46,2.91,5.49,2.76,9v.33A1.5,1.5,0,0,1,57.68,71.09Z" style="fill:#1a1a1a"/><path d="M64.78,89.09h0a1.5,1.5,0,0,1-1.46-1.54s.12-4.32,0-6.77c-.1-2.15-3.27-10.62-4.78-13.51a5.47,5.47,0,0,0-.76-1.17,1.47,1.47,0,0,1-1.33-.45,1.5,1.5,0,0,1,.06-2.12c4.62-2.91,9.14,13.18,9.81,17.11.12,2.56,0,6.81,0,7A1.5,1.5,0,0,1,64.78,89.09ZM58.53,65.72Z" style="fill:#1a1a1a"/></svg>