<svg xmlns="http://www.w3.org/2000/svg" viewBox="0 0 558.02 484"><defs><style>.cls-1{fill:#fff;stroke:#000;stroke-linecap:round;stroke-linejoin:round;stroke-width:20px;}</style></defs><title>アセット 1</title><g id="レイヤー_2" data-name="レイヤー 2"><g id="レイヤー_1-2" data-name="レイヤー 1"><path class="cls-1" d="M10,474S57,95,120,30c0,0,63,68,76,90"/><path class="cls-1" d="M171,122s149-30,216,0c0,0,45-108,74-112,0,0,66,158,77,315s10,140,10,140"/><path class="cls-1" d="M221.5,218.5s5,7,18,5,18-14,18-14,10,17,18,17,21-11,21-11"/><line class="cls-1" x1="199.5" y1="171.5" x2="154.5" y2="194.5"/><line class="cls-1" x1="329.5" y1="168.5" x2="380.5" y2="190.5"/></g></g></svg>